<?xml version="1.0" standalone="no"?>
<!DOCTYPE svg PUBLIC "-//W3C//DTD SVG 20010904//EN"
 "http://www.w3.org/TR/2001/REC-SVG-20010904/DTD/svg10.dtd">
<svg version="1.0" xmlns="http://www.w3.org/2000/svg"
 width="894.000000pt" height="865.000000pt" viewBox="0 0 894.000000 865.000000"
 preserveAspectRatio="xMidYMid meet">

<g transform="translate(0.000000,865.000000) scale(0.100000,-0.100000)"
fill="#000000" stroke="none">
<path d="M8490 7970 c-448 -449 -905 -853 -1310 -1161 l-35 -27 74 -83 c41
-46 86 -96 99 -111 l25 -27 -64 -98 c-345 -526 -775 -1046 -1314 -1592 -580
-587 -1155 -1085 -1880 -1626 -577 -431 -1354 -949 -1859 -1240 l-68 -40 95
-91 c52 -50 130 -117 172 -149 l77 -59 176 88 c759 378 1668 946 2452 1532
712 532 1288 1031 1891 1640 293 296 403 413 648 694 84 96 157 175 162 175
13 0 118 -227 170 -367 24 -65 47 -118 50 -118 10 0 124 249 192 421 212 534
373 1151 461 1769 34 234 60 559 54 670 l-3 66 -265 -266z"/>
<path d="M4035 7824 c-701 -56 -1315 -266 -1875 -640 -821 -548 -1388 -1374
-1605 -2339 -176 -780 -100 -1595 215 -2336 187 -439 437 -811 780 -1163 632
-648 1431 -1034 2342 -1132 204 -22 572 -22 776 0 705 76 1344 327 1905 749
772 581 1286 1413 1461 2367 44 241 59 415 59 685 0 352 -35 636 -118 950 -50
189 -170 535 -185 535 -3 0 -65 -66 -137 -147 -72 -82 -186 -206 -253 -278
-68 -71 -138 -146 -157 -166 l-34 -36 26 -103 c220 -867 42 -1810 -478 -2540
-288 -404 -690 -750 -1128 -970 -413 -208 -833 -314 -1294 -327 -227 -6 -401
5 -599 38 -1130 187 -2064 983 -2426 2068 -173 518 -206 1082 -94 1615 125
590 405 1106 834 1537 256 257 501 434 815 589 348 172 663 266 1050 311 157
19 530 16 684 -4 701 -94 1298 -378 1791 -854 64 -62 154 -157 200 -212 65
-77 87 -98 97 -89 34 28 397 526 434 596 12 22 5 31 -127 163 -162 164 -275
263 -431 380 -534 400 -1168 651 -1858 735 -124 15 -561 26 -670 18z m393 -99
c29 -9 52 -18 52 -20 0 -2 -5 -16 -12 -30 -10 -22 -17 -25 -37 -21 -113 27
-146 29 -202 13 -66 -20 -121 -73 -138 -134 -21 -73 -14 -164 17 -223 38 -76
89 -101 199 -101 115 0 113 -2 113 97 l0 84 -65 0 -65 0 0 35 0 35 100 0 100
0 0 -145 0 -144 -42 -12 c-24 -7 -90 -13 -148 -13 -96 -1 -110 2 -157 26 -96
51 -136 128 -137 263 0 73 4 100 23 143 29 65 97 127 160 146 62 19 176 20
239 1z m-774 -91 c9 -8 16 -31 16 -50 0 -27 -5 -37 -22 -43 -32 -12 -58 -2
-69 26 -13 34 -12 40 11 63 24 24 43 25 64 4z m1438 -3 c4 -3 26 -130 48 -281
22 -151 43 -287 46 -302 5 -24 2 -28 -18 -28 -42 0 -51 15 -65 111 -7 51 -14
94 -16 94 -6 5 -194 45 -209 45 -10 0 -39 -33 -70 -77 -46 -66 -57 -77 -78
-75 -14 2 -29 7 -33 11 -4 5 33 68 84 142 275 402 259 380 282 373 12 -3 25
-9 29 -13z m-1902 -99 c0 -27 -2 -28 -77 -40 -82 -13 -118 -32 -143 -75 -18
-32 -6 -72 31 -100 21 -15 51 -21 132 -27 121 -9 159 -25 188 -82 60 -117 -17
-221 -192 -263 -89 -21 -95 -20 -108 16 -6 18 -11 33 -11 34 0 1 29 5 65 8 74
7 159 40 180 71 22 31 18 81 -8 112 -21 25 -32 27 -132 36 -131 11 -175 31
-205 93 -11 23 -20 56 -20 74 0 91 113 169 248 170 50 1 52 0 52 -27z m2607
-139 c106 -49 193 -94 193 -101 0 -7 -5 -22 -10 -32 -9 -18 -15 -17 -92 20
-58 27 -85 35 -89 27 -4 -7 -53 -112 -109 -235 -94 -203 -105 -222 -124 -216
-47 14 -46 18 64 257 l108 232 -75 37 c-42 21 -78 39 -80 41 -6 6 8 57 16 57
3 0 92 -39 198 -87z m-3257 -158 c24 -38 92 -150 151 -247 l108 -177 -34 -21
-34 -21 -213 102 c-117 56 -235 113 -262 126 l-50 25 19 -28 c39 -59 153 -242
195 -312 41 -70 42 -73 24 -87 -11 -8 -24 -15 -29 -15 -10 0 -285 442 -300
481 -4 11 5 21 27 33 l33 18 253 -121 c139 -67 255 -121 258 -121 3 0 -8 19
-24 43 -44 64 -223 359 -220 361 25 19 52 35 54 33 1 -1 21 -33 44 -72z m1172
25 c-2 -19 -10 -65 -19 -102 -13 -61 -17 -68 -39 -68 -24 0 -24 1 -24 99 0
107 2 111 55 108 28 -2 30 -4 27 -37z m2731 -248 c64 -46 117 -87 117 -91 0
-4 -7 -17 -16 -29 l-15 -22 -72 53 c-40 29 -86 63 -103 75 l-32 22 -51 -70
c-28 -39 -51 -73 -51 -75 0 -3 43 -37 96 -76 96 -70 96 -71 77 -92 -10 -12
-19 -23 -19 -25 -1 -2 -46 29 -99 68 -53 40 -98 70 -99 68 -17 -19 -116 -162
-116 -167 0 -3 45 -37 100 -76 54 -38 99 -72 99 -75 0 -3 -7 -15 -17 -28 l-17
-22 -133 96 -133 96 24 31 c13 18 73 100 132 182 182 252 185 256 198 248 7
-3 65 -45 130 -91z m-4449 -417 l185 -210 -21 -22 c-12 -13 -25 -22 -30 -21
-4 2 -93 100 -198 218 l-190 215 27 22 c15 12 31 19 35 15 3 -4 90 -101 192
-217z m-464 -105 c0 -5 -36 -51 -80 -103 l-79 -95 68 -56 c37 -31 71 -56 74
-56 3 0 39 40 79 89 l75 89 23 -18 c28 -21 30 -18 -67 -133 l-62 -74 74 -61
c41 -34 78 -63 83 -64 5 -2 44 39 86 90 43 50 81 92 85 92 4 0 16 -9 26 -20
17 -19 14 -23 -81 -139 -55 -66 -102 -120 -107 -120 -10 -1 -442 359 -442 368
0 4 45 61 100 127 97 117 101 120 123 106 12 -8 22 -18 22 -22z m-416 -502
l26 -11 -44 -82 -45 -81 225 -124 c123 -68 224 -128 224 -134 0 -7 -7 -21 -15
-33 -15 -21 -17 -20 -241 104 -174 96 -229 122 -235 111 -5 -7 -25 -43 -45
-80 l-37 -67 -29 15 -29 15 19 32 c11 18 33 57 49 87 92 167 145 260 148 260
2 0 15 -5 29 -12z m-308 -679 c15 -16 16 -23 6 -37 -32 -44 -62 -120 -62 -159
0 -33 5 -46 26 -62 56 -44 110 -22 184 74 59 77 116 109 175 100 49 -7 97 -41
120 -86 31 -59 8 -186 -49 -277 -18 -28 -25 -32 -50 -27 -16 3 -31 7 -33 9 -2
1 12 29 31 60 82 137 67 246 -35 246 -43 0 -69 -20 -139 -105 -54 -65 -88 -85
-143 -85 -120 0 -181 93 -144 221 16 53 71 149 86 149 5 0 16 -9 27 -21z
m6999 -1268 c106 -47 155 -122 154 -236 0 -122 -41 -195 -134 -241 -153 -74
-367 -20 -435 111 -37 73 -36 178 3 257 31 64 67 94 142 121 69 24 201 19 270
-12z m-429 -752 c2 -4 -6 -25 -20 -46 -78 -118 -71 -239 13 -258 43 -9 78 13
142 92 69 85 109 113 163 113 60 0 107 -29 134 -80 26 -52 27 -78 6 -151 -15
-50 -62 -139 -74 -139 -3 0 -15 8 -28 18 l-24 18 33 52 c61 98 49 194 -26 208
-46 8 -70 -8 -146 -101 -86 -104 -150 -128 -229 -86 -81 42 -104 146 -59 268
32 85 53 111 84 105 14 -2 28 -8 31 -13z m-1 -727 c127 -68 231 -126 233 -127
2 -2 -4 -17 -13 -35 l-16 -31 -77 42 c-42 23 -91 50 -107 60 -36 21 -25 35
-114 -133 l-62 -116 106 -57 c58 -31 105 -58 105 -60 0 -14 -25 -55 -33 -55
-10 0 -82 39 -389 207 l-118 64 15 30 c9 16 18 29 21 29 3 0 54 -27 114 -60
60 -33 112 -60 117 -60 13 0 145 248 139 259 -4 5 -55 35 -114 67 -59 31 -108
58 -110 60 -2 1 4 16 13 33 14 28 18 30 38 20 12 -7 126 -68 252 -137z m-5635
-462 c46 -24 88 -82 97 -134 12 -75 -44 -166 -157 -257 -148 -119 -265 -132
-344 -39 -58 69 -56 147 4 235 72 105 238 213 328 215 18 0 51 -9 72 -20z
m5185 -239 c113 -107 205 -198 205 -201 0 -3 -15 -21 -34 -39 -41 -39 -10 -47
-295 73 -113 47 -206 84 -207 83 -1 -1 45 -101 102 -222 57 -121 104 -225 104
-232 0 -18 -51 -74 -65 -71 -17 4 -409 377 -413 393 -1 6 6 19 17 29 19 18 21
17 47 -3 15 -12 97 -88 181 -170 84 -81 153 -147 153 -145 0 2 -49 108 -110
235 -60 128 -110 237 -110 242 0 6 7 18 16 28 17 19 -16 31 381 -135 l132 -55
-97 92 c-53 50 -135 129 -182 174 -84 81 -84 82 -65 103 10 11 22 19 27 18 4
-2 100 -91 213 -197z m-4695 -261 c0 -5 -72 -94 -160 -199 l-159 -191 69 0 70
0 0 -31 0 -32 -101 5 c-81 4 -104 9 -119 24 -19 19 -16 23 166 241 l185 223
25 -16 c13 -9 24 -20 24 -24z m3985 -376 c83 -130 151 -242 153 -249 3 -11
-46 -51 -52 -43 -2 2 -36 55 -76 118 -40 63 -73 116 -74 117 -1 2 -17 -83 -36
-187 -32 -187 -33 -190 -64 -210 -21 -13 -32 -16 -34 -7 -1 7 11 82 27 167 16
85 28 156 27 156 0 1 -79 31 -175 68 -96 37 -181 71 -189 75 -10 6 -5 13 21
29 l36 21 155 -60 c86 -32 160 -59 164 -59 5 0 13 15 19 34 10 32 7 40 -38
110 -76 119 -75 116 -48 137 13 10 26 19 29 19 3 0 73 -107 155 -236z m-3489
50 c81 -39 116 -120 94 -218 -25 -114 -136 -283 -211 -321 -35 -19 -100 -19
-142 -1 -44 18 -95 78 -103 122 -10 56 3 123 41 203 92 194 206 270 321 215z
m2740 -203 c23 -10 53 -35 68 -54 31 -41 170 -417 159 -428 -5 -4 -20 -10 -34
-14 -25 -6 -27 -3 -69 117 -82 235 -100 277 -132 303 -56 47 -174 26 -227 -41
-34 -43 -26 -92 48 -299 l68 -190 -30 -13 c-16 -7 -33 -10 -37 -5 -4 4 -37 94
-74 198 -83 236 -85 287 -18 358 72 76 194 106 278 68z m-2122 -61 c92 -27
171 -52 176 -55 5 -3 4 -18 -1 -33 -8 -21 -39 -43 -142 -99 -73 -39 -152 -86
-175 -103 -52 -37 -87 -106 -77 -150 13 -60 89 -91 178 -73 42 8 49 7 58 -8
15 -29 11 -38 -28 -48 -153 -43 -297 48 -278 175 13 86 87 153 283 254 45 23
81 45 78 47 -2 3 -64 23 -137 44 -73 22 -134 41 -136 43 -6 6 16 56 25 56 4 0
83 -22 176 -50z m1446 -96 c0 -3 16 -124 35 -267 20 -144 36 -271 38 -282 2
-18 -11 -21 -158 -41 -88 -11 -161 -21 -162 -20 0 1 -3 15 -5 31 l-3 30 85 12
c47 6 103 14 126 18 l41 6 -13 92 c-7 51 -13 97 -14 103 0 7 -36 6 -115 -5
-63 -8 -117 -12 -119 -10 -2 2 -7 16 -11 30 l-6 26 117 16 c64 9 119 18 121
20 1 2 -4 51 -12 108 -20 145 -21 139 20 139 19 0 35 -3 35 -6z m-994 -10 c17
-5 28 -25 50 -99 l28 -92 80 -7 c162 -12 148 -18 192 79 39 85 39 85 77 85
l38 0 -14 -27 c-7 -16 -69 -144 -137 -285 -103 -213 -128 -258 -145 -258 -11
0 -25 4 -31 8 -10 7 -184 564 -184 590 0 13 13 15 46 6z"/>
<path d="M4976 7444 c-38 -57 -67 -106 -65 -108 2 -2 41 -13 87 -24 l83 -19
-7 56 c-3 31 -12 88 -18 128 l-11 72 -69 -105z"/>
<path d="M7524 3971 c-50 -23 -82 -65 -93 -125 -15 -82 6 -148 62 -190 69 -52
227 -64 307 -23 144 72 127 289 -27 341 -66 23 -196 21 -249 -3z"/>
<path d="M1577 2017 c-70 -39 -149 -106 -188 -160 -40 -55 -40 -113 -1 -149
37 -35 65 -42 110 -27 87 28 228 143 262 214 26 54 21 85 -20 126 -39 40 -87
39 -163 -4z"/>
<path d="M2603 1210 c-40 -24 -84 -83 -129 -173 -61 -120 -62 -201 -1 -237 82
-51 159 5 244 176 57 117 58 199 0 234 -41 25 -73 25 -114 0z"/>
<path d="M3897 626 c3 -12 21 -70 39 -131 18 -60 33 -103 34 -95 0 8 23 62 50
120 35 74 46 106 37 111 -7 4 -47 9 -90 11 -75 5 -77 4 -70 -16z"/>
<path d="M4010 6934 c-352 -40 -622 -105 -885 -215 -857 -356 -1488 -1083
-1715 -1972 -62 -245 -82 -397 -87 -667 -9 -407 45 -728 184 -1100 106 -285
316 -640 504 -854 l34 -38 193 116 c106 64 215 130 242 147 l50 31 -75 86
c-42 48 -106 131 -143 184 -37 53 -71 97 -77 97 -5 1 -107 -31 -225 -69 -118
-38 -215 -68 -216 -67 -1 1 -81 246 -178 545 -98 299 -180 550 -182 557 -4 11
51 32 220 87 l226 72 0 161 c0 158 17 338 44 465 8 36 11 66 7 68 -51 21 -406
213 -406 219 0 18 527 1033 537 1033 6 0 101 -47 212 -104 l201 -105 119 115
c65 63 173 155 239 204 67 49 130 95 139 102 16 12 12 29 -52 227 -39 118 -70
219 -70 226 0 9 1077 365 1106 365 6 0 42 -100 81 -222 l72 -223 113 3 c132 4
331 -12 473 -38 89 -16 101 -16 112 -3 6 8 56 100 109 204 54 104 102 189 107
189 9 0 1017 -518 1030 -530 5 -4 -39 -99 -97 -210 l-105 -203 127 -132 c70
-72 154 -168 187 -213 33 -44 63 -80 67 -79 8 2 98 104 234 265 l105 122 -36
47 c-75 98 -224 259 -325 350 -214 193 -425 336 -685 463 -293 144 -558 225
-898 276 -97 14 -536 27 -617 18z"/>
<path d="M4040 5446 c-320 -58 -573 -188 -795 -411 -213 -212 -344 -460 -401
-755 -24 -127 -24 -369 0 -500 56 -309 225 -613 453 -815 l52 -46 118 82 c583
408 1168 866 1663 1303 182 162 428 388 429 397 1 3 -31 55 -71 115 -132 200
-342 385 -561 495 -89 45 -245 100 -357 124 -102 23 -426 29 -530 11z"/>
<path d="M7024 4689 l-41 -41 48 -146 c26 -81 49 -153 51 -161 2 -10 -57 -34
-212 -85 l-215 -72 3 -109 c4 -133 -12 -327 -39 -477 -11 -61 -17 -113 -14
-117 4 -3 93 -51 198 -106 106 -55 191 -104 190 -108 -2 -12 -515 -1010 -526
-1025 -7 -9 -57 12 -211 91 l-201 104 -85 -87 c-103 -104 -257 -233 -361 -301
l-76 -50 69 -216 c39 -118 66 -219 61 -223 -8 -8 -1105 -361 -1109 -357 -1 1
-33 99 -71 217 l-69 215 -210 7 c-186 5 -352 25 -467 53 -21 6 -31 -9 -123
-186 -54 -105 -103 -198 -109 -205 -8 -11 -80 23 -348 161 l-338 175 -81 -41
-81 -41 84 -50 c333 -202 746 -341 1168 -394 187 -23 589 -15 775 15 629 103
1182 384 1622 825 488 490 779 1110 844 1801 13 141 13 404 0 536 -17 165 -66
439 -79 439 -4 0 -25 -18 -47 -41z"/>
<path d="M5550 3398 c-121 -102 -650 -489 -932 -682 -87 -59 -158 -109 -158
-111 0 -6 41 2 155 27 326 73 646 287 844 564 57 81 137 222 129 229 -2 2 -19
-10 -38 -27z"/>
<path d="M643 1788 c-241 -362 -440 -721 -451 -814 -4 -37 -2 -43 19 -50 69
-22 302 13 604 91 255 66 622 184 618 199 -1 4 -47 58 -103 120 l-100 113
-183 -92 c-212 -108 -275 -126 -343 -100 -66 25 -89 64 -89 150 0 99 42 184
177 357 l107 138 -40 70 c-23 38 -42 70 -44 70 -2 0 -79 -114 -172 -252z"/>
<path d="M913 1648 c-83 -107 -137 -199 -131 -224 2 -10 38 3 138 52 74 36
150 74 167 85 l33 20 -41 58 c-22 32 -51 70 -63 86 l-22 28 -81 -105z"/>
</g>
</svg>
